# xmcd
#
# Track frame offsets: 
#        150
#        15448
#        33156
#        56596
#        73126
#        88789
#        104900
#        123824
#        142106
#        158340
#        180786
#        200504
#
# Disc length: 3012 seconds
#
# Revision: 0
# Processed by: cddbd v1.4PL0 Copyright (c) Steve Scherf et al.
# Submitted via: ExactAudioCopy v0.90b4
#
DISCID=9a0bc20c
DTITLE=Van Morrison - The Story Of The Red Hot Pokers, disc 1
DYEAR=2001
DGENRE=Celtic
TTITLE0=Hot Little Mama
TTITLE1=Midnight Cannonball
TTITLE2=Here Ever After
TTITLE3=Shake, Rattle and Roll
TTITLE4=The Dark End Of The Street
TTITLE5=A Shot Of Rhythm and Blues
TTITLE6=It Once Was My Life
TTITLE7=It Fills You Up
TTITLE8=Enlightenment
TTITLE9=How Long Has This Been Going On ? > For Chet and Kenny
TTITLE10=Dead Or Alive
TTITLE11=Rough God Goes Riding
EXTD=
EXTT0=
EXTT1=
EXTT2=
EXTT3=
EXTT4=
EXTT5=
EXTT6=
EXTT7=
EXTT8=
EXTT9=
EXTT10=
EXTT11=
PLAYORDER=
